Coordinates
version=1
nRows=17
nColumns=24
inDegrees=yes

Units are S.I. units (second, meters, Newtons, ...)
Angles are in degrees.

endheader
time	pelvis_tilt	pelvis_list	pelvis_rotation	pelvis_tx	pelvis_ty	pelvis_tz	hip_flexion_r	hip_adduction_r	hip_rotation_r	knee_angle_r	ankle_angle_r	subtalar_angle_r	mtp_angle_r	hip_flexion_l	hip_adduction_l	hip_rotation_l	knee_angle_l	ankle_angle_l	subtalar_angle_l	mtp_angle_l	lumbar_extension	lumbar_bending	lumbar_rotation
      4.35500000	     -4.13229939	      5.66201261	    359.40377781	      0.61818790	      1.37003790	     -1.00402842	      0.72605228	     -4.56673166	      5.01536317	    -36.99424633	      0.41102411	     -5.75512535	     20.91476422	     22.27386353	      8.23443544	     -2.28215880	     -9.15055177	    -11.96201628	     -5.74533881	     28.88792293	    -12.11424624	     -1.11232050	     -3.98858099
      4.36000000	     -4.07948000	      5.85484700	    359.44327974	      0.62356385	      1.37036577	     -1.00498506	      1.37390664	     -4.85042183	      4.94309411	    -38.55830953	     -0.68252487	     -5.57478299	     22.05394939	     22.22163460	      8.52310909	     -2.13735491	     -9.77074841	    -11.73214861	     -5.94534479	     28.21805038	    -12.12153507	     -1.37106996	     -3.97042273
      4.36500000	     -3.99167471	      6.02867746	    359.50256741	      0.62893027	      1.37072618	     -1.00598411	      1.98045297	     -5.11693990	      4.86984103	    -40.06963078	     -1.77027720	     -5.40097456	     23.21046601	     22.09287110	      8.80767190	     -1.94508529	    -10.32417752	    -11.43241584	     -6.05228380	     27.50957836	    -12.15929640	     -1.59594711	     -3.98295497
      4.37000000	     -3.90750327	      6.20425725	    359.54885644	      0.63425335	      1.37108229	     -1.00696572	      2.60799251	     -5.38445805	      4.82306279	    -41.56228157	     -2.73371253	     -5.16784696	     24.18454900	     21.94928813	      9.09003039	     -1.83119949	    -10.83386795	    -11.15280360	     -6.15838977	     26.87098530	    -12.18837934	     -1.81918868	     -3.95766459
      4.37500000	     -3.82016674	      6.36225149	    359.60229366	      0.63954372	      1.37143971	     -1.00796656	      3.23233194	     -5.63308799	      4.78478284	    -43.00626337	     -3.58930202	     -4.91013948	     25.08150810	     21.77357189	      9.36010424	     -1.72797343	    -11.28788217	    -10.85869727	     -6.23198138	     26.24509770	    -12.21715872	     -2.01533937	     -3.94890026
      4.38000000	     -3.74545861	      6.49639073	    359.66395560	      0.64478608	      1.37179299	     -1.00898731	      3.87093018	     -5.85353524	      4.75823648	    -44.40061288	     -4.31276195	     -4.62504129	     25.88101127	     21.58736044	      9.60933828	     -1.63989447	    -11.69201085	    -10.54933194	     -6.25645315	     25.64444543	    -12.23153637	     -2.17645516	     -3.95497504
      4.38500000	     -3.64219923	      6.61426024	    359.72015466	      0.64999684	      1.37218293	     -1.01000028	      4.47138813	     -6.05133471	      4.75119582	    -45.73024094	     -4.89086152	     -4.31972688	     26.59948541	     21.33554681	      9.84060602	     -1.58019410	    -12.03061398	    -10.22880658	     -6.23617701	     25.07182683	    -12.26833022	     -2.31325099	     -3.96903840
      4.39000000	     -3.52168674	      6.70449158	    359.78834642	      0.65513527	      1.37260962	     -1.01102292	      5.04362454	     -6.21451280	      4.74043093	    -46.98880710	     -5.34371482	     -4.06052548	     27.28042943	     21.05029352	     10.04610763	     -1.55256477	    -12.34011232	     -9.89310744	     -6.13811392	     24.45899758	    -12.33252974	     -2.40925426	     -4.04609858
      4.39500000	     -3.40255613	      6.79912545	    359.80281530	      0.66024249	      1.37304649	     -1.01195816	      5.63053999	     -6.36698484	      4.80661833	    -48.21359381	     -5.53878139	     -3.65864791	     27.63881199	     20.72158036	     10.23137333	     -1.58349645	    -12.54033036	     -9.65967651	     -6.12599863	     24.22085390	    -12.38767449	     -2.51972032	     -4.04751148
      4.40000000	     -3.34497227	      6.81008054	    359.89003595	      0.66527146	      1.37345236	     -1.01303103	      6.26129553	     -6.43407244	      4.80377610	    -49.34668275	     -5.71362164	     -3.40323912	     28.27407455	     20.48417639	     10.35928093	     -1.54323721	    -12.81889299	     -9.21418583	     -5.91213963	     23.47948819	    -12.38452189	     -2.50586040	     -4.10841648
      4.40500000	     -3.21554396	      6.84692408	    359.90298025	      0.67026755	      1.37394756	     -1.01396293	      6.82115267	     -6.51036773	      4.88235811	    -50.42967104	     -5.64258049	     -3.01563904	     28.57246354	     20.11403781	     10.48023670	     -1.59582021	    -12.95772657	     -8.97248587	     -5.83256085	     23.29237672	    -12.45359690	     -2.53570263	     -4.13169396
      4.41000000	     -3.16799021	      6.81904007	    359.96558984	      0.67518276	      1.37439190	     -1.01497661	      7.46174828	     -6.51714472	      4.91324667	    -51.44321633	     -5.54653564	     -2.76445592	     28.99110226	     19.86583663	     10.54977825	     -1.60894688	    -13.18622593	     -8.52084766	     -5.55104698	     22.61432201	    -12.44161178	     -2.47549491	     -4.19068718
      4.41500000	     -3.06979204	      6.80518863	    359.96953041	      0.68006697	      1.37491399	     -1.01588487	      8.05088569	     -6.52405670	      5.00297806	    -52.39813216	     -5.26321444	     -2.42731859	     29.23223032	     19.52008331	     10.60883638	     -1.66985837	    -13.30186252	     -8.27166267	     -5.44072207	     22.45532128	    -12.48197172	     -2.44032694	     -4.22629273
      4.42000000	     -3.04934266	      6.74509288	    360.00057869	      0.68487968	      1.37537235	     -1.01683057	      8.72525579	     -6.47745570	      5.06324025	    -53.29947712	     -4.95110642	     -2.21342389	     29.45569483	     19.29350649	     10.62517057	     -1.72081508	    -13.50667023	     -7.80842914	     -5.12088579	     21.82446660	    -12.44178838	     -2.33984002	     -4.28412668
      4.42500000	     -2.97097645	      6.70022168	    359.98749231	      0.68965534	      1.37592140	     -1.01769870	      9.33496706	     -6.43866068	      5.15869448	    -54.13048551	     -4.51436173	     -1.93191467	     29.64872777	     18.97188257	     10.64087812	     -1.79327697	    -13.62255839	     -7.54973108	     -4.99412010	     21.66443294	    -12.46868145	     -2.26493178	     -4.31478456
      4.43000000	     -2.97652486	      6.62023025	    360.00256462	      0.69437014	      1.37639189	     -1.01857968	     10.03744115	     -6.35713090	      5.22072845	    -54.91627928	     -4.05148691	     -1.78279071	     29.71589709	     18.78161527	     10.62352812	     -1.84440389	    -13.83754586	     -7.09100826	     -4.66372000	     21.07134116	    -12.41217415	     -2.14715336	     -4.34418767
      4.43500000	     -2.92132813	      6.56297988	    359.94878088	      0.69906228	      1.37696045	     -1.01936369	     10.67794984	     -6.28677724	      5.34491113	    -55.62949726	     -3.52236131	     -1.56473672	     29.84460833	     18.48776259	     10.60706363	     -1.93946627	    -13.95267044	     -6.81643665	     -4.52272885	     20.86531805	    -12.41696425	     -2.05885206	     -4.37649465
